<?xml version="1.0" encoding="UTF-8" standalone="no"?>
<!-- Created with Inkscape (http://www.inkscape.org/) -->

<svg
   xmlns:dc="http://purl.org/dc/elements/1.1/"
   xmlns:cc="http://creativecommons.org/ns#"
   xmlns:rdf="http://www.w3.org/1999/02/22-rdf-syntax-ns#"
   xmlns:svg="http://www.w3.org/2000/svg"
   xmlns="http://www.w3.org/2000/svg"
   xmlns:sodipodi="http://sodipodi.sourceforge.net/DTD/sodipodi-0.dtd"
   xmlns:inkscape="http://www.inkscape.org/namespaces/inkscape"
   width="211.66667mm"
   height="79.640938mm"
   viewBox="0 0 211.66667 79.640935"
   version="1.1"
   id="svg8"
   inkscape:version="0.92.4 (5da689c313, 2019-01-14)"
   sodipodi:docname="nuxt-netlify-cms-starter-thumb.svg"
   inkscape:export-filename="C:\Users\jerem\OneDrive\Pictures\Personal Site\blog-header-template.png"
   inkscape:export-xdpi="96"
   inkscape:export-ydpi="96">
  <defs
     id="defs2">
    <clipPath
       clipPathUnits="userSpaceOnUse"
       id="clipPath867">
      <rect
         style="opacity:1;fill:#ececec;fill-opacity:1;stroke:none;stroke-width:0;stroke-miterlimit:4;stroke-dasharray:none;stroke-opacity:1"
         id="rect869"
         width="1062.6636"
         height="1074.6373"
         x="-1570.0247"
         y="-509.99893"
         transform="rotate(-90)" />
    </clipPath>
    <clipPath
       clipPathUnits="userSpaceOnUse"
       id="clipPath871">
      <ellipse
         style="opacity:1;fill:#ffffff;fill-opacity:1;stroke:none;stroke-width:0;stroke-miterlimit:4;stroke-dasharray:none;stroke-opacity:1"
         id="ellipse873"
         cx="-1037.1962"
         cy="27.319729"
         rx="524.58215"
         ry="543.4574"
         transform="rotate(-90)" />
    </clipPath>
    <radialGradient
       gradientTransform="matrix(0.65986757,0,0,0.66059339,180.30836,74.067722)"
       fy="33.94024"
       fx="18.790847"
       r="10.150533"
       cy="33.94024"
       id="a"
       cx="18.790847"
       gradientUnits="userSpaceOnUse">
      <stop
         id="stop893"
         stop-color="#20C6B7"
         offset="0%" />
      <stop
         id="stop895"
         stop-color="#4D9ABF"
         offset="100%" />
    </radialGradient>
    <filter
       style="color-interpolation-filters:sRGB;"
       inkscape:label="Drop Shadow"
       id="filter1029">
      <feFlood
         flood-opacity="0.498039"
         flood-color="rgb(0,0,0)"
         result="flood"
         id="feFlood1019" />
      <feComposite
         in="flood"
         in2="SourceGraphic"
         operator="in"
         result="composite1"
         id="feComposite1021" />
      <feGaussianBlur
         in="composite1"
         stdDeviation="3"
         result="blur"
         id="feGaussianBlur1023" />
      <feOffset
         dx="6"
         dy="6"
         result="offset"
         id="feOffset1025" />
      <feComposite
         in="SourceGraphic"
         in2="offset"
         operator="over"
         result="composite2"
         id="feComposite1027" />
    </filter>
  </defs>
  <sodipodi:namedview
     id="base"
     pagecolor="#ffffff"
     bordercolor="#666666"
     borderopacity="1.0"
     inkscape:pageopacity="0.0"
     inkscape:pageshadow="2"
     inkscape:zoom="1"
     inkscape:cx="368.10935"
     inkscape:cy="239.91534"
     inkscape:document-units="mm"
     inkscape:current-layer="layer1"
     showgrid="false"
     fit-margin-top="0"
     fit-margin-left="0"
     fit-margin-right="0"
     fit-margin-bottom="0"
     inkscape:window-width="1920"
     inkscape:window-height="986"
     inkscape:window-x="-11"
     inkscape:window-y="-11"
     inkscape:window-maximized="1"
     scale-x="1"
     showguides="true"
     inkscape:guide-bbox="true">
    <sodipodi:guide
       position="80.261038,116.74332"
       orientation="0,1"
       id="guide992"
       inkscape:locked="false" />
  </sodipodi:namedview>
  <metadata
     id="metadata5">
    <rdf:RDF>
      <cc:Work
         rdf:about="">
        <dc:format>image/svg+xml</dc:format>
        <dc:type
           rdf:resource="http://purl.org/dc/dcmitype/StillImage" />
        <dc:title></dc:title>
      </cc:Work>
    </rdf:RDF>
  </metadata>
  <g
     inkscape:label="Layer 1"
     inkscape:groupmode="layer"
     id="layer1"
     transform="translate(-13.493749,-33.739578)">
    <rect
       style="opacity:1;fill:#2a2a2a;fill-opacity:1;stroke:none;stroke-width:0;stroke-miterlimit:4;stroke-dasharray:none;stroke-opacity:1"
       id="rect823"
       width="148.56839"
       height="79.64093"
       x="12.401045"
       y="33.739578" />
    <path
       style="opacity:1;fill:#00695c;fill-opacity:1;stroke:none;stroke-width:0;stroke-miterlimit:4;stroke-dasharray:none;stroke-opacity:1"
       d="m 160.96943,33.739578 h 64.19099 v 79.640932 h -88.58357 z"
       id="rect829"
       inkscape:connector-curvature="0"
       sodipodi:nodetypes="ccccc" />
    <g
       id="g864"
       transform="matrix(0.0855081,0,0,0.0855081,138.28472,45.517878)"
       style="fill:none;fill-rule:nonzero">
      <path
         id="path858"
         d="m 227.92099,82.07407 -13.6889,23.7037 L 167.41729,24.69136 23.7037,273.58025 h 97.3037 c 0,13.0912 10.61252,23.7037 23.70371,23.7037 H 23.70371 c -8.46771,0 -16.29145,-4.52017 -20.5246,-11.85382 -4.23315,-7.33366 -4.23272,-16.36849 0.00114,-23.70174 L 146.89383,12.83951 c 4.23415,-7.33433 12.0596,-11.85252 20.5284,-11.85252 8.46878,0 16.29423,4.51819 20.52839,11.85252 z"
         inkscape:connector-curvature="0"
         style="fill:#00c58e" />
      <path
         id="path860"
         d="m 331.6642,261.7284 -90.05432,-155.95062 -13.6889,-23.7037 -13.68888,23.7037 -90.04445,155.95061 c -4.23385,7.33325 -4.23428,16.36808 -0.001,23.70174 4.23314,7.33365 12.05689,11.85382 20.5246,11.85382 h 166.4 c 8.46946,0 16.29644,-4.51525 20.532,-11.84955 4.23555,-7.3343 4.23606,-16.37123 10e-4,-23.706 z m -186.9531,11.85184 83.2099,-144.09876 83.19012,144.09877 h -166.4 z"
         inkscape:connector-curvature="0"
         style="fill:#2f495e" />
      <path
         id="path862"
         d="m 396.04938,285.4321 c -4.23344,7.33254 -12.05656,11.85185 -20.52345,11.85185 H 311.1111 c 13.0912,0 23.7037,-10.6125 23.7037,-23.7037 h 40.66173 L 260.09877,73.74815 241.60987,105.77778 227.92099,82.07408 239.5753,61.8963 c 4.23416,-7.33433 12.0596,-11.85252 20.5284,-11.85252 8.46879,0 16.29423,4.51819 20.52839,11.85252 l 115.41728,199.8321 c 4.23426,7.33395 4.23426,16.36975 0,23.7037 z"
         inkscape:connector-curvature="0"
         style="fill:#108775" />
    </g>
    <path
       id="path900"
       d="m 199.18368,83.400081 -0.01,-0.004 c -0.005,-0.0019 -0.01,-0.004 -0.015,-0.0085 a 0.07262535,0.07262535 0 0 1 -0.0175,-0.06142 l 0.51037,-3.120249 2.39333,2.393995 -2.48908,1.05901 a 0.05479913,0.05479913 0 0 1 -0.0225,0.004 h -0.01 c -0.002,-0.0019 -0.007,-0.0048 -0.0125,-0.01122 a 1.1329554,1.1329554 0 0 0 -0.32683,-0.25155 z m 3.47149,-0.190146 2.55906,2.559053 c 0.53149,0.532147 0.79755,0.797559 0.89462,1.105227 0.015,0.04556 0.0264,0.0911 0.0357,0.137993 l -6.11573,-2.590085 a 0.48064773,0.48064773 0 0 0 -0.01,-0.004 c -0.025,-0.01 -0.0529,-0.02122 -0.0529,-0.04622 0,-0.02508 0.0289,-0.03699 0.0534,-0.04688 l 0.007,-0.0032 z m 3.385,4.623595 c -0.13199,0.248238 -0.38952,0.505734 -0.82528,0.942149 l -2.88521,2.884546 -3.73161,-0.777094 -0.02,-0.0039 c -0.0329,-0.0052 -0.0679,-0.01121 -0.0679,-0.04092 a 1.1263531,1.1263531 0 0 0 -0.43232,-0.787656 c -0.015,-0.01522 -0.0125,-0.03895 -0.007,-0.06074 0,-0.0035 0,-0.0064 0.002,-0.0093 l 0.70185,-4.308666 0.002,-0.01447 c 0.005,-0.03301 0.01,-0.07129 0.0397,-0.07129 a 1.1421985,1.1421985 0 0 0 0.76585,-0.439053 c 0.005,-0.0065 0.01,-0.01398 0.0175,-0.01772 0.02,-0.01 0.0461,0 0.0679,0.0092 l 6.37123,2.695064 z m -4.374,4.490228 -4.74443,4.744415 0.81208,-4.991342 0.002,-0.0065 c 4.9e-4,-0.0064 0.002,-0.01321 0.005,-0.01923 0.007,-0.01596 0.025,-0.02246 0.0402,-0.02903 l 0.007,-0.0035 a 1.2214263,1.2214263 0 0 0 0.45885,-0.341336 c 0.015,-0.01845 0.0349,-0.03631 0.0593,-0.03964 a 0.05942073,0.05942073 0 0 1 0.02,0 l 3.3408,0.686638 z m -5.74864,5.748625 -0.53478,0.53478 -5.91238,-8.544695 a 0.27993768,0.27993768 0 0 0 -0.007,-0.0093 c -0.01,-0.01248 -0.02,-0.02506 -0.0175,-0.03965 5e-4,-0.01047 0.007,-0.01972 0.015,-0.0277 l 0.007,-0.0085 c 0.0175,-0.02638 0.0329,-0.05283 0.0494,-0.0812 l 0.0125,-0.0232 0.002,-0.0019 c 0.01,-0.01596 0.0175,-0.03103 0.0337,-0.03964 0.015,-0.0065 0.0329,-0.0039 0.0481,-4.9e-4 l 6.55014,1.350831 a 0.10827779,0.10827779 0 0 1 0.0502,0.02173 c 0.007,0.0085 0.01,0.01772 0.0125,0.02839 a 1.1600248,1.1600248 0 0 0 0.67872,0.775768 c 0.0175,0.0093 0.01,0.02971 0.002,0.05151 a 0.15713482,0.15713482 0 0 0 -0.01,0.02971 c -0.0826,0.501777 -0.79029,4.818356 -0.98043,5.983666 z m -1.11713,1.11645 c -0.39413,0.39019 -0.62653,0.59684 -0.88931,0.68003 a 1.3204609,1.3204609 0 0 1 -0.79625,0 c -0.30765,-0.0977 -0.57372,-0.36312 -1.10522,-0.89527 l -5.93746,-5.937448 1.5509,-2.40522 c 0.007,-0.01199 0.015,-0.02246 0.0264,-0.03103 0.0175,-0.01199 0.0402,-0.0064 0.0602,0 a 1.6070008,1.6070008 0 0 0 1.08146,-0.0548 c 0.0174,-0.0064 0.0357,-0.01121 0.0494,0.0015 a 0.12544377,0.12544377 0 0 1 0.0175,0.02119 l 5.9414,8.621948 z m -9.30064,-6.725109 -1.36207,-1.362053 2.6898,-1.147484 a 0.05545935,0.05545935 0 0 1 0.0225,-0.0049 c 0.0225,0 0.0357,0.02246 0.0477,0.04292 a 1.9212705,1.9212705 0 0 0 0.0858,0.121476 l 0.007,0.01047 c 0.007,0.01121 0.002,0.02246 -0.005,0.03299 l -1.48553,2.306185 z m -1.96485,-1.964848 -1.7232,-1.723197 c -0.29314,-0.293144 -0.50573,-0.505738 -0.65363,-0.68862 l 5.23958,1.086738 a 0.55459353,0.55459353 0 0 0 0.02,0.0032 c 0.0324,0.0052 0.0681,0.01122 0.0681,0.0416 0,0.03301 -0.039,0.04819 -0.0718,0.06073 l -0.015,0.0065 z m -2.6779,-3.297848 a 1.3204609,1.3204609 0 0 1 0.0594,-0.326814 c 0.0978,-0.307668 0.36313,-0.57308 0.89526,-1.105227 l 2.20518,-2.205169 a 1436.3478,1436.3478 0 0 0 3.05425,4.414962 c 0.0175,0.02371 0.0377,0.05018 0.0175,0.06999 -0.0963,0.106302 -0.19288,0.222486 -0.26079,0.348602 a 0.10563685,0.10563685 0 0 1 -0.0329,0.04093 c -0.007,0.0052 -0.0175,0.0032 -0.0277,0.0013 h -0.002 l -5.90827,-1.239255 z m 3.7501,-4.227453 2.96512,-2.965097 c 0.27861,0.122148 1.29272,0.55063 2.19989,0.933567 0.68661,0.290499 1.31252,0.554593 1.50928,0.640422 0.02,0.008 0.0378,0.01572 0.0461,0.03566 0.005,0.01197 0.002,0.02708 0,0.03963 a 1.3224415,1.3224415 0 0 0 0.34527,1.206901 c 0.02,0.01971 0,0.04821 -0.0175,0.07264 l -0.01,0.01398 -3.01065,4.663207 c -0.007,0.01323 -0.015,0.02446 -0.0284,0.03301 -0.015,0.01 -0.0382,0.0052 -0.0567,6.85e-4 a 1.5013639,1.5013639 0 0 0 -0.3585,-0.04886 c -0.1083,0 -0.22583,0.01971 -0.34463,0.0416 h -4.9e-4 c -0.0125,0.0019 -0.025,0.0048 -0.0357,-0.0032 a 0.13864838,0.13864838 0 0 1 -0.0297,-0.03366 z m 3.56392,-3.563925 3.83859,-3.83858 c 0.5315,-0.531485 0.79757,-0.797557 1.10522,-0.894612 a 1.3204609,1.3204609 0 0 1 0.79625,0 c 0.30768,0.09704 0.57373,0.363127 1.10521,0.894612 l 0.83191,0.831889 -2.73005,4.228117 a 0.10233572,0.10233572 0 0 1 -0.027,0.03169 c -0.0175,0.01122 -0.0397,0.0065 -0.0593,0 a 1.3845031,1.3845031 0 0 0 -1.26765,0.244296 c -0.0175,0.01846 -0.0441,0.008 -0.0666,-0.0019 -0.35654,-0.155162 -3.1295,-1.327062 -3.52629,-1.495421 z m 8.25685,-2.427009 2.52076,2.520762 -0.60739,3.761991 v 0.01 a 0.0891311,0.0891311 0 0 1 -0.005,0.02508 c -0.007,0.01323 -0.02,0.01572 -0.0329,0.01971 a 1.2082216,1.2082216 0 0 0 -0.36183,0.180239 0.10167548,0.10167548 0 0 0 -0.0125,0.01122 c -0.007,0.008 -0.015,0.01522 -0.0264,0.01647 a 0.07526627,0.07526627 0 0 1 -0.0284,-0.0048 l -3.8412,-1.632089 -0.007,-0.0032 c -0.025,-0.01 -0.0534,-0.02172 -0.0534,-0.04688 A 1.4511864,1.4511864 0 0 0 193.768,81.237032 c -0.0175,-0.03037 -0.039,-0.06205 -0.0225,-0.0931 z m -2.59603,5.681945 3.60092,1.525131 c 0.0199,0.0092 0.0416,0.01772 0.0502,0.03831 a 0.06998442,0.06998442 0 0 1 0,0.03763 c -0.01,0.05283 -0.02,0.112891 -0.02,0.173652 v 0.101012 c 0,0.02508 -0.0258,0.03566 -0.0494,0.04556 l -0.007,0.0027 c -0.57044,0.243622 -8.00862,3.415372 -8.01984,3.415372 -0.0125,0 -0.0225,0 -0.0345,-0.01122 -0.02,-0.01971 0,-0.04754 0.0175,-0.07262 a 0.5017751,0.5017751 0 0 0 0.01,-0.01323 l 2.95917,-4.581998 0.005,-0.008 c 0.0175,-0.02772 0.0369,-0.05877 0.0686,-0.05877 l 0.0297,0.0048 c 0.0674,0.0092 0.12677,0.01772 0.18691,0.01772 0.44894,0 0.8649,-0.218544 1.11577,-0.592225 a 0.10563685,0.10563685 0 0 1 0.0225,-0.0264 c 0.0175,-0.01323 0.0441,-0.0065 0.0647,0.0027 z m -4.12379,6.064217 8.10764,-3.457627 c 0,0 0.0125,0 0.0225,0.01122 0.0442,0.04424 0.0819,0.07394 0.11829,0.101686 l 0.0175,0.01122 c 0.0175,0.0092 0.0329,0.01971 0.0345,0.03699 0,0.0065 0,0.01048 -0.002,0.01647 l -0.69456,4.266403 -0.002,0.01723 c -0.005,0.03303 -0.01,0.07064 -0.0402,0.07064 a 1.1415383,1.1415383 0 0 0 -0.90651,0.559216 l -0.002,0.0052 c -0.01,0.01522 -0.0175,0.02971 -0.0329,0.03763 -0.015,0.0064 -0.0317,0.0039 -0.0461,4.9e-4 l -6.46563,-1.333661 c -0.007,-0.0013 -0.10031,-0.342661 -0.10754,-0.343319 z"
       inkscape:connector-curvature="0"
       style="fill:url(#a);stroke-width:0.6602304" />
    <g
       id="g920"
       transform="matrix(0.31359607,0,0,0.31359607,130.29658,52.916851)"
       style="filter:url(#filter1029)">
      <path
         id="rect912"
         d="m 149.32011,49.022015 h 2.80633 v 33.67596 h -2.80633 z"
         style="opacity:1;fill:#108775;fill-opacity:1;stroke:none;stroke-width:0;stroke-miterlimit:4;stroke-dasharray:none;stroke-opacity:1"
         inkscape:connector-curvature="0" />
      <path
         id="rect914"
         d="m 64.456833,-167.56126 h 2.80633 v 33.67596 h -2.80633 z"
         style="opacity:1;fill:#108775;fill-opacity:1;stroke:none;stroke-width:0;stroke-miterlimit:4;stroke-dasharray:none;stroke-opacity:1"
         transform="rotate(90)"
         inkscape:connector-curvature="0" />
    </g>
  </g>
</svg>
