<?xml version="1.0" encoding="UTF-8" standalone="no"?>
<!-- Created with Inkscape (http://www.inkscape.org/) -->

<svg
   xmlns:dc="http://purl.org/dc/elements/1.1/"
   xmlns:cc="http://creativecommons.org/ns#"
   xmlns:rdf="http://www.w3.org/1999/02/22-rdf-syntax-ns#"
   xmlns:svg="http://www.w3.org/2000/svg"
   xmlns="http://www.w3.org/2000/svg"
   xmlns:sodipodi="http://sodipodi.sourceforge.net/DTD/sodipodi-0.dtd"
   xmlns:inkscape="http://www.inkscape.org/namespaces/inkscape"
   width="211.66667mm"
   height="79.640938mm"
   viewBox="0 0 211.66667 79.640935"
   version="1.1"
   id="svg8"
   inkscape:version="0.92.4 (5da689c313, 2019-01-14)"
   sodipodi:docname="nuxt-netlify-cms-starter.svg"
   inkscape:export-filename="C:\Users\jerem\OneDrive\Pictures\Personal Site\blog-header-template.png"
   inkscape:export-xdpi="96"
   inkscape:export-ydpi="96">
  <defs
     id="defs2">
    <clipPath
       clipPathUnits="userSpaceOnUse"
       id="clipPath867">
      <rect
         style="opacity:1;fill:#ececec;fill-opacity:1;stroke:none;stroke-width:0;stroke-miterlimit:4;stroke-dasharray:none;stroke-opacity:1"
         id="rect869"
         width="1062.6636"
         height="1074.6373"
         x="-1570.0247"
         y="-509.99893"
         transform="rotate(-90)" />
    </clipPath>
    <clipPath
       clipPathUnits="userSpaceOnUse"
       id="clipPath871">
      <ellipse
         style="opacity:1;fill:#ffffff;fill-opacity:1;stroke:none;stroke-width:0;stroke-miterlimit:4;stroke-dasharray:none;stroke-opacity:1"
         id="ellipse873"
         cx="-1037.1962"
         cy="27.319729"
         rx="524.58215"
         ry="543.4574"
         transform="rotate(-90)" />
    </clipPath>
    <radialGradient
       gradientTransform="matrix(0.81956887,0,0,0.82047036,172.54768,57.151303)"
       fy="33.94024"
       fx="18.790847"
       r="10.150533"
       cy="33.94024"
       id="a"
       cx="18.790847"
       gradientUnits="userSpaceOnUse">
      <stop
         id="stop893"
         stop-color="#20C6B7"
         offset="0%" />
      <stop
         id="stop895"
         stop-color="#4D9ABF"
         offset="100%" />
    </radialGradient>
    <filter
       style="color-interpolation-filters:sRGB;"
       inkscape:label="Drop Shadow"
       id="filter1029">
      <feFlood
         flood-opacity="0.498039"
         flood-color="rgb(0,0,0)"
         result="flood"
         id="feFlood1019" />
      <feComposite
         in="flood"
         in2="SourceGraphic"
         operator="in"
         result="composite1"
         id="feComposite1021" />
      <feGaussianBlur
         in="composite1"
         stdDeviation="3"
         result="blur"
         id="feGaussianBlur1023" />
      <feOffset
         dx="6"
         dy="6"
         result="offset"
         id="feOffset1025" />
      <feComposite
         in="SourceGraphic"
         in2="offset"
         operator="over"
         result="composite2"
         id="feComposite1027" />
    </filter>
  </defs>
  <sodipodi:namedview
     id="base"
     pagecolor="#ffffff"
     bordercolor="#666666"
     borderopacity="1.0"
     inkscape:pageopacity="0.0"
     inkscape:pageshadow="2"
     inkscape:zoom="1"
     inkscape:cx="368.10935"
     inkscape:cy="239.91534"
     inkscape:document-units="mm"
     inkscape:current-layer="layer1"
     showgrid="false"
     fit-margin-top="0"
     fit-margin-left="0"
     fit-margin-right="0"
     fit-margin-bottom="0"
     inkscape:window-width="1920"
     inkscape:window-height="986"
     inkscape:window-x="-11"
     inkscape:window-y="-11"
     inkscape:window-maximized="1"
     scale-x="1"
     showguides="true"
     inkscape:guide-bbox="true">
    <sodipodi:guide
       position="80.261038,116.74332"
       orientation="0,1"
       id="guide992"
       inkscape:locked="false" />
  </sodipodi:namedview>
  <metadata
     id="metadata5">
    <rdf:RDF>
      <cc:Work
         rdf:about="">
        <dc:format>image/svg+xml</dc:format>
        <dc:type
           rdf:resource="http://purl.org/dc/dcmitype/StillImage" />
        <dc:title></dc:title>
      </cc:Work>
    </rdf:RDF>
  </metadata>
  <g
     inkscape:label="Layer 1"
     inkscape:groupmode="layer"
     id="layer1"
     transform="translate(-13.493749,-33.739578)">
    <rect
       style="opacity:1;fill:#2a2a2a;fill-opacity:1;stroke:none;stroke-width:0;stroke-miterlimit:4;stroke-dasharray:none;stroke-opacity:1"
       id="rect823"
       width="148.56839"
       height="79.64093"
       x="12.401045"
       y="33.739578" />
    <path
       style="opacity:1;fill:#00695c;fill-opacity:1;stroke:none;stroke-width:0;stroke-miterlimit:4;stroke-dasharray:none;stroke-opacity:1"
       d="m 160.96943,33.739578 h 64.19099 v 79.640932 h -88.58357 z"
       id="rect829"
       inkscape:connector-curvature="0"
       sodipodi:nodetypes="ccccc" />
    <g
       id="g1273"
       transform="translate(9.5250003)">
      <g
         style="fill:none;fill-rule:nonzero"
         transform="matrix(0.10620279,0,0,0.10620279,109.18047,57.72144)"
         id="g864">
        <path
           style="fill:#00c58e"
           inkscape:connector-curvature="0"
           d="m 227.92099,82.07407 -13.6889,23.7037 L 167.41729,24.69136 23.7037,273.58025 h 97.3037 c 0,13.0912 10.61252,23.7037 23.70371,23.7037 H 23.70371 c -8.46771,0 -16.29145,-4.52017 -20.5246,-11.85382 -4.23315,-7.33366 -4.23272,-16.36849 0.00114,-23.70174 L 146.89383,12.83951 c 4.23415,-7.33433 12.0596,-11.85252 20.5284,-11.85252 8.46878,0 16.29423,4.51819 20.52839,11.85252 z"
           id="path858" />
        <path
           style="fill:#2f495e"
           inkscape:connector-curvature="0"
           d="m 331.6642,261.7284 -90.05432,-155.95062 -13.6889,-23.7037 -13.68888,23.7037 -90.04445,155.95061 c -4.23385,7.33325 -4.23428,16.36808 -0.001,23.70174 4.23314,7.33365 12.05689,11.85382 20.5246,11.85382 h 166.4 c 8.46946,0 16.29644,-4.51525 20.532,-11.84955 4.23555,-7.3343 4.23606,-16.37123 10e-4,-23.706 z m -186.9531,11.85184 83.2099,-144.09876 83.19012,144.09877 h -166.4 z"
           id="path860" />
        <path
           style="fill:#108775"
           inkscape:connector-curvature="0"
           d="m 396.04938,285.4321 c -4.23344,7.33254 -12.05656,11.85185 -20.52345,11.85185 H 311.1111 c 13.0912,0 23.7037,-10.6125 23.7037,-23.7037 h 40.66173 L 260.09877,73.74815 241.60987,105.77778 227.92099,82.07408 239.5753,61.8963 c 4.23416,-7.33433 12.0596,-11.85252 20.5284,-11.85252 8.46879,0 16.29423,4.51819 20.52839,11.85252 l 115.41728,199.8321 c 4.23426,7.33395 4.23426,16.36975 0,23.7037 z"
           id="path862" />
      </g>
      <path
         style="fill:url(#a);stroke-width:0.82001948"
         inkscape:connector-curvature="0"
         d="m 195.99121,68.742281 -0.0124,-0.005 c -0.006,-0.0024 -0.0124,-0.005 -0.0186,-0.01054 a 0.09020215,0.09020215 0 0 1 -0.0217,-0.07628 l 0.63389,-3.875412 2.97256,2.97339 -3.09148,1.315312 a 0.06806163,0.06806163 0 0 1 -0.0279,0.005 h -0.0124 c -0.003,-0.0024 -0.009,-0.0059 -0.0155,-0.01394 a 1.4071535,1.4071535 0 0 0 -0.40592,-0.31243 z m 4.31166,-0.236165 3.17841,3.178396 c 0.66012,0.660938 0.99057,0.990584 1.11113,1.372714 0.0186,0.05659 0.0328,0.113155 0.0443,0.17139 l -7.59586,-3.216938 a 0.59697421,0.59697421 0 0 0 -0.0124,-0.005 c -0.031,-0.0124 -0.0657,-0.02635 -0.0657,-0.0574 0,-0.03115 0.0359,-0.04594 0.0663,-0.05823 l 0.009,-0.004 z m 4.20424,5.742599 c -0.16394,0.308318 -0.48379,0.628132 -1.02502,1.170168 l -3.58349,3.582666 -4.63473,-0.965167 -0.0248,-0.0049 c -0.0409,-0.0065 -0.0843,-0.01392 -0.0843,-0.05082 a 1.3989533,1.3989533 0 0 0 -0.53695,-0.978285 c -0.0186,-0.0189 -0.0155,-0.04838 -0.009,-0.07544 0,-0.0043 0,-0.008 0.002,-0.01149 l 0.87171,-5.351449 0.003,-0.01797 c 0.006,-0.041 0.0124,-0.08855 0.0493,-0.08855 a 1.4186337,1.4186337 0 0 0 0.9512,-0.545313 c 0.006,-0.0081 0.0124,-0.01736 0.0217,-0.02201 0.0249,-0.0124 0.0573,0 0.0843,0.01147 l 7.91319,3.347322 z m -5.4326,5.576954 -5.89268,5.892661 1.00863,-6.199348 0.002,-0.0081 c 6.1e-4,-0.008 0.003,-0.01641 0.006,-0.02389 0.009,-0.01982 0.031,-0.0279 0.0499,-0.03605 l 0.009,-0.0043 a 1.5170362,1.5170362 0 0 0 0.5699,-0.423947 c 0.0186,-0.02291 0.0434,-0.0451 0.0737,-0.04924 a 0.07380175,0.07380175 0 0 1 0.0248,0 l 4.14933,0.852819 z m -7.13992,7.139908 -0.66421,0.664212 -7.3433,-10.612687 a 0.34768826,0.34768826 0 0 0 -0.009,-0.01149 c -0.0124,-0.0155 -0.0248,-0.03112 -0.0217,-0.04924 6.2e-4,-0.01301 0.009,-0.02449 0.0186,-0.03441 l 0.009,-0.01052 c 0.0217,-0.03276 0.0409,-0.06562 0.0614,-0.100854 l 0.0155,-0.02881 0.003,-0.0024 c 0.0124,-0.01982 0.0217,-0.03854 0.0418,-0.04924 0.0186,-0.0081 0.0409,-0.0049 0.0598,-6.08e-4 l 8.13541,1.677759 a 0.13448321,0.13448321 0 0 1 0.0623,0.02699 c 0.009,0.01052 0.0124,0.02201 0.0155,0.03526 a 1.4407743,1.4407743 0 0 0 0.84298,0.96352 c 0.0217,0.01149 0.0124,0.0369 0.003,0.06398 a 0.19516463,0.19516463 0 0 0 -0.0124,0.0369 c -0.10259,0.623217 -0.98155,5.9845 -1.21771,7.431836 z m -1.3875,1.386652 c -0.48952,0.484632 -0.77816,0.741297 -1.10455,0.844618 a 1.6400391,1.6400391 0 0 1 -0.98895,0 c -0.38211,-0.121363 -0.71258,-0.45101 -1.37271,-1.111945 l -7.37444,-7.374434 1.92625,-2.987332 c 0.009,-0.01489 0.0186,-0.0279 0.0328,-0.03854 0.0217,-0.01489 0.0499,-0.008 0.0747,0 a 1.9959275,1.9959275 0 0 0 1.3432,-0.06806 c 0.0216,-0.008 0.0443,-0.01392 0.0613,0.0019 a 0.1558037,0.1558037 0 0 1 0.0217,0.02632 l 7.37934,10.708634 z m -11.55159,-8.352719 -1.69172,-1.691697 3.34079,-1.425198 a 0.06888164,0.06888164 0 0 1 0.0279,-0.0061 c 0.0279,0 0.0443,0.0279 0.0592,0.05331 a 2.3862568,2.3862568 0 0 0 0.10661,0.150876 l 0.009,0.01301 c 0.009,0.01392 0.003,0.0279 -0.006,0.04097 l -1.84506,2.864328 z m -2.44038,-2.44038 -2.14025,-2.140247 c -0.36409,-0.36409 -0.62812,-0.628137 -0.81182,-0.85528 l 6.50766,1.349752 a 0.68881639,0.68881639 0 0 0 0.0248,0.004 c 0.0403,0.0065 0.0846,0.01394 0.0846,0.05167 0,0.041 -0.0484,0.05985 -0.0892,0.07543 l -0.0186,0.0081 z m -3.326,-4.095994 a 1.6400391,1.6400391 0 0 1 0.0738,-0.40591 c 0.1215,-0.38213 0.45101,-0.711776 1.11193,-1.372714 l 2.73888,-2.738864 a 1783.973,1783.973 0 0 0 3.79343,5.48347 c 0.0217,0.02945 0.0468,0.06233 0.0217,0.08693 -0.11962,0.132029 -0.23956,0.276332 -0.3239,0.43297 a 0.13120311,0.13120311 0 0 1 -0.0409,0.05083 c -0.009,0.0065 -0.0217,0.004 -0.0344,0.0016 h -0.002 l -7.33819,-1.53918 z m 4.6577,-5.250584 3.68273,-3.682709 c 0.34604,0.15171 1.60559,0.683894 2.73231,1.159509 0.85279,0.360806 1.63018,0.688816 1.87456,0.795418 0.0248,0.0099 0.0469,0.01952 0.0573,0.04429 0.006,0.01487 0.003,0.03363 0,0.04922 a 1.6424991,1.6424991 0 0 0 0.42884,1.498995 c 0.0249,0.02448 0,0.05988 -0.0217,0.09022 l -0.0124,0.01736 -3.73929,5.791798 c -0.009,0.01643 -0.0186,0.03038 -0.0353,0.041 -0.0186,0.0124 -0.0474,0.0065 -0.0704,8.51e-4 a 1.8647243,1.8647243 0 0 0 -0.44527,-0.06068 c -0.13451,0 -0.28048,0.02448 -0.42804,0.05167 h -6e-4 c -0.0155,0.0024 -0.031,0.0059 -0.0443,-0.004 a 0.17220409,0.17220409 0 0 1 -0.0369,-0.04181 z m 4.42646,-4.426467 4.7676,-4.767594 c 0.66013,-0.660114 0.9906,-0.990582 1.37271,-1.111126 a 1.6400391,1.6400391 0 0 1 0.98895,0 c 0.38215,0.120532 0.71259,0.451012 1.3727,1.111126 l 1.03325,1.033224 -3.39078,5.251406 a 0.12710304,0.12710304 0 0 1 -0.0335,0.03936 c -0.0217,0.01394 -0.0493,0.0081 -0.0737,0 a 1.7195809,1.7195809 0 0 0 -1.57444,0.30342 c -0.0217,0.02293 -0.0548,0.0099 -0.0827,-0.0024 -0.44283,-0.192714 -3.8869,-1.648238 -4.37972,-1.857344 z m 10.25517,-3.014394 3.13083,3.130838 -0.75439,4.672469 v 0.0124 a 0.11070263,0.11070263 0 0 1 -0.006,0.03115 c -0.009,0.01643 -0.0248,0.01952 -0.0409,0.02448 a 1.5006357,1.5006357 0 0 0 -0.44939,0.223861 0.126283,0.126283 0 0 0 -0.0155,0.01394 c -0.009,0.0099 -0.0186,0.0189 -0.0328,0.02046 a 0.09348223,0.09348223 0 0 1 -0.0353,-0.0059 l -4.77085,-2.027088 -0.009,-0.004 c -0.031,-0.0124 -0.0663,-0.02697 -0.0663,-0.05823 a 1.8024029,1.8024029 0 0 0 -0.25414,-0.750319 c -0.0217,-0.03772 -0.0484,-0.07707 -0.0279,-0.115635 z m -3.22432,7.057091 4.47241,1.894243 c 0.0247,0.01147 0.0517,0.02201 0.0623,0.04758 a 0.08692206,0.08692206 0 0 1 0,0.04674 c -0.0124,0.06561 -0.0248,0.140212 -0.0248,0.215679 v 0.125459 c 0,0.03115 -0.032,0.04429 -0.0614,0.05659 l -0.009,0.0034 c -0.70849,0.302584 -9.94686,4.241962 -9.9608,4.241962 -0.0155,0 -0.0279,0 -0.0428,-0.01394 -0.0248,-0.02448 0,-0.05904 0.0217,-0.09019 a 0.62321483,0.62321483 0 0 0 0.0124,-0.01643 l 3.67536,-5.690934 0.006,-0.0099 c 0.0217,-0.03443 0.0459,-0.07299 0.0852,-0.07299 l 0.0369,0.0059 c 0.0837,0.01147 0.15745,0.02201 0.23214,0.02201 0.55759,0 1.07422,-0.271436 1.38581,-0.735556 a 0.13120311,0.13120311 0 0 1 0.0279,-0.03279 c 0.0217,-0.01643 0.0548,-0.0081 0.0803,0.0034 z m -5.12183,7.53188 10.06985,-4.294442 c 0,0 0.0155,0 0.0279,0.01394 0.0549,0.05495 0.10166,0.09183 0.14691,0.126296 l 0.0217,0.01394 c 0.0217,0.01147 0.0409,0.02448 0.0428,0.04594 0,0.0081 0,0.01302 -0.002,0.02046 l -0.86265,5.298959 -0.003,0.0214 c -0.006,0.04103 -0.0124,0.08774 -0.0499,0.08774 a 1.4178137,1.4178137 0 0 0 -1.1259,0.694557 l -0.003,0.0065 c -0.0124,0.0189 -0.0217,0.0369 -0.0409,0.04674 -0.0186,0.008 -0.0394,0.0049 -0.0573,6.08e-4 l -8.03045,-1.656434 c -0.009,-0.0016 -0.12459,-0.425591 -0.13357,-0.426409 z"
         id="path900" />
      <g
         style="filter:url(#filter1029)"
         transform="matrix(0.38949266,0,0,0.38949266,103.85968,47.908059)"
         id="g920">
        <path
           inkscape:connector-curvature="0"
           style="opacity:1;fill:#108775;fill-opacity:1;stroke:none;stroke-width:0;stroke-miterlimit:4;stroke-dasharray:none;stroke-opacity:1"
           d="m 149.32011,49.022015 h 2.80633 v 33.67596 h -2.80633 z"
           id="rect912" />
        <path
           inkscape:connector-curvature="0"
           transform="rotate(90)"
           style="opacity:1;fill:#108775;fill-opacity:1;stroke:none;stroke-width:0;stroke-miterlimit:4;stroke-dasharray:none;stroke-opacity:1"
           d="m 64.456833,-167.56126 h 2.80633 v 33.67596 h -2.80633 z"
           id="rect914" />
      </g>
    </g>
  </g>
</svg>
