<?xml version="1.0" encoding="UTF-8" standalone="no"?>
<!-- Created with Inkscape (http://www.inkscape.org/) -->

<svg
   xmlns:dc="http://purl.org/dc/elements/1.1/"
   xmlns:cc="http://creativecommons.org/ns#"
   xmlns:rdf="http://www.w3.org/1999/02/22-rdf-syntax-ns#"
   xmlns:svg="http://www.w3.org/2000/svg"
   xmlns="http://www.w3.org/2000/svg"
   xmlns:sodipodi="http://sodipodi.sourceforge.net/DTD/sodipodi-0.dtd"
   xmlns:inkscape="http://www.inkscape.org/namespaces/inkscape"
   width="211.66667mm"
   height="79.640938mm"
   viewBox="0 0 211.66667 79.640935"
   version="1.1"
   id="svg8"
   inkscape:version="0.92.4 (5da689c313, 2019-01-14)"
   sodipodi:docname="umami-theme.svg"
   inkscape:export-filename="C:\Users\jerem\OneDrive\Pictures\Personal Site\blog-header-template.png"
   inkscape:export-xdpi="96"
   inkscape:export-ydpi="96">
  <defs
     id="defs2">
    <clipPath
       clipPathUnits="userSpaceOnUse"
       id="clipPath867">
      <rect
         style="opacity:1;fill:#ececec;fill-opacity:1;stroke:none;stroke-width:0;stroke-miterlimit:4;stroke-dasharray:none;stroke-opacity:1"
         id="rect869"
         width="1062.6636"
         height="1074.6373"
         x="-1570.0247"
         y="-509.99893"
         transform="rotate(-90)" />
    </clipPath>
    <clipPath
       clipPathUnits="userSpaceOnUse"
       id="clipPath871">
      <ellipse
         style="opacity:1;fill:#ffffff;fill-opacity:1;stroke:none;stroke-width:0;stroke-miterlimit:4;stroke-dasharray:none;stroke-opacity:1"
         id="ellipse873"
         cx="-1037.1962"
         cy="27.319729"
         rx="524.58215"
         ry="543.4574"
         transform="rotate(-90)" />
    </clipPath>
    <radialGradient
       gradientTransform="matrix(0.81956887,0,0,0.82047036,182.07268,57.151303)"
       fy="33.94024"
       fx="18.790847"
       r="10.150533"
       cy="33.94024"
       id="a"
       cx="18.790847"
       gradientUnits="userSpaceOnUse">
      <stop
         id="stop893"
         stop-color="#20C6B7"
         offset="0%" />
      <stop
         id="stop895"
         stop-color="#4D9ABF"
         offset="100%" />
    </radialGradient>
    <filter
       style="color-interpolation-filters:sRGB;"
       inkscape:label="Drop Shadow"
       id="filter1029">
      <feFlood
         flood-opacity="0.498039"
         flood-color="rgb(0,0,0)"
         result="flood"
         id="feFlood1019" />
      <feComposite
         in="flood"
         in2="SourceGraphic"
         operator="in"
         result="composite1"
         id="feComposite1021" />
      <feGaussianBlur
         in="composite1"
         stdDeviation="3"
         result="blur"
         id="feGaussianBlur1023" />
      <feOffset
         dx="6"
         dy="6"
         result="offset"
         id="feOffset1025" />
      <feComposite
         in="SourceGraphic"
         in2="offset"
         operator="over"
         result="composite2"
         id="feComposite1027" />
    </filter>
  </defs>
  <sodipodi:namedview
     id="base"
     pagecolor="#ffffff"
     bordercolor="#666666"
     borderopacity="1.0"
     inkscape:pageopacity="0.0"
     inkscape:pageshadow="2"
     inkscape:zoom="1"
     inkscape:cx="542.10935"
     inkscape:cy="39.91534"
     inkscape:document-units="mm"
     inkscape:current-layer="layer1"
     showgrid="false"
     fit-margin-top="0"
     fit-margin-left="0"
     fit-margin-right="0"
     fit-margin-bottom="0"
     inkscape:window-width="1920"
     inkscape:window-height="986"
     inkscape:window-x="-11"
     inkscape:window-y="-11"
     inkscape:window-maximized="1"
     scale-x="1"
     showguides="true"
     inkscape:guide-bbox="true">
    <sodipodi:guide
       position="80.261038,116.74332"
       orientation="0,1"
       id="guide992"
       inkscape:locked="false" />
  </sodipodi:namedview>
  <metadata
     id="metadata5">
    <rdf:RDF>
      <cc:Work
         rdf:about="">
        <dc:format>image/svg+xml</dc:format>
        <dc:type
           rdf:resource="http://purl.org/dc/dcmitype/StillImage" />
        <dc:title></dc:title>
      </cc:Work>
    </rdf:RDF>
  </metadata>
  <g
     inkscape:label="Layer 1"
     inkscape:groupmode="layer"
     id="layer1"
     transform="translate(-13.493749,-33.739578)">
    <g
       id="g855"
       style="fill:#333333">
      <rect
         y="33.739578"
         x="12.401045"
         height="79.64093"
         width="148.56839"
         id="rect823"
         style="opacity:1;fill:#333333;fill-opacity:1;stroke:none;stroke-width:0;stroke-miterlimit:4;stroke-dasharray:none;stroke-opacity:1" />
      <path
         sodipodi:nodetypes="ccccc"
         inkscape:connector-curvature="0"
         id="rect829"
         d="m 160.96943,33.739578 h 64.19099 v 79.640932 h -88.58357 z"
         style="opacity:1;fill:#333333;fill-opacity:1;stroke:none;stroke-width:0;stroke-miterlimit:4;stroke-dasharray:none;stroke-opacity:1" />
    </g>
    <g
       id="g857"
       transform="matrix(0.00497747,-0.00110616,-0.00110616,-0.00497747,150.9797,110.23324)"
       style="fill:#808080;stroke:none">
      <path
         id="path855"
         d="m 12415,8216 c -187,-43 -606,-262 -945,-494 -495,-338 -899,-701 -1669,-1500 -355,-368 -490,-473 -697,-541 -151,-51 -220,-48 -504,16 -692,158 -1299,244 -2095,295 -250,16 -1103,16 -1360,0 C 4270,5937 3550,5829 2770,5635 1849,5406 1262,5152 809,4788 253,4341 -57,3699 9,3130 78,2543 510,1866 1142,1356 2230,479 3986,-33 5780,3 c 1085,22 2120,227 3075,607 1206,480 1975,1143 2360,2032 54,126 128,328 122,334 -2,2 -37,-38 -77,-89 -93,-115 -326,-350 -447,-449 C 10237,1962 9480,1608 8455,1336 6421,795 4189,856 2187,1507 c -671,218 -1117,421 -1423,648 -113,85 -289,265 -362,372 -34,50 -62,94 -62,98 0,3 44,-34 98,-84 652,-604 1637,-1021 2993,-1266 725,-130 1366,-186 2134,-186 603,0 1053,28 1600,102 1440,193 2603,598 3445,1199 454,324 694,634 772,995 19,91 16,333 -5,433 -56,258 -190,515 -379,732 -300,343 -755,602 -1513,860 -264,91 -267,92 -180,84 234,-19 494,-100 742,-229 l 122,-63 22,66 c 11,37 47,121 79,187 100,206 231,385 425,580 204,204 381,347 855,685 525,375 742,557 944,791 223,260 324,447 302,564 -9,44 -57,100 -110,127 -52,27 -186,33 -271,14 z m 110,-296 c 8,-26 -8,-54 -50,-85 -64,-50 -216,-73 -360,-55 -115,14 -129,22 -73,43 120,44 391,114 455,116 13,1 24,-7 28,-19 z M 10507,6297 c -70,-119 -216,-197 -367,-197 -72,0 -161,22 -179,44 -22,26 16,40 132,47 70,5 134,15 170,28 69,24 233,109 250,129 23,28 19,-8 -6,-51 z"
         inkscape:connector-curvature="0"
         style="fill:#808080" />
    </g>
    <path
       id="path877"
       d="m 156.0248,43.581534 c 4.51147,5.64029 4.41508,9.552374 2.64297,13.21784 -1.9174,4.032142 -5.71819,7.832758 -7.45042,13.398759 -2.29892,7.400069 1.3173,20.829612 17.85237,19.222701 -7.59603,-1.27771 -12.23523,-10.703267 -7.2648,-19.193934 0.14778,6.595976 4.76735,9.330288 8.4839,6.567312 3.62063,-2.731432 7.269,-0.687907 8.27669,2.701854 0.70873,2.318585 0.44374,4.585083 -1.54437,6.461079 9.44334,-5.070302 10.74558,-14.69432 8.66439,-21.026983 -2.74341,-8.3476 -10.55787,-7.055167 -9.11778,-15.289279 -4.33554,1.850105 -4.90894,5.281099 -2.90053,9.936666 1.32848,3.071727 -1.27229,6.318483 -4.19198,5.683338 -2.36115,-0.552921 -3.06996,-2.871474 -1.91047,-5.166166 2.49578,-4.86012 1.17584,-13.7287 -11.53997,-16.513187 z"
       inkscape:connector-curvature="0"
       style="fill:#800000;stroke-width:0.0504991" />
  </g>
</svg>
