<?xml version="1.0" encoding="UTF-8" standalone="no"?>
<!-- Created with Inkscape (http://www.inkscape.org/) -->

<svg
   xmlns:dc="http://purl.org/dc/elements/1.1/"
   xmlns:cc="http://creativecommons.org/ns#"
   xmlns:rdf="http://www.w3.org/1999/02/22-rdf-syntax-ns#"
   xmlns:svg="http://www.w3.org/2000/svg"
   xmlns="http://www.w3.org/2000/svg"
   xmlns:sodipodi="http://sodipodi.sourceforge.net/DTD/sodipodi-0.dtd"
   xmlns:inkscape="http://www.inkscape.org/namespaces/inkscape"
   width="211.66667mm"
   height="79.640938mm"
   viewBox="0 0 211.66667 79.640935"
   version="1.1"
   id="svg8"
   inkscape:version="0.92.4 (5da689c313, 2019-01-14)"
   sodipodi:docname="nuxt-content.svg"
   inkscape:export-filename="C:\Users\jerem\OneDrive\Pictures\Personal Site\blog-header-template.png"
   inkscape:export-xdpi="96"
   inkscape:export-ydpi="96">
  <defs
     id="defs2">
    <clipPath
       clipPathUnits="userSpaceOnUse"
       id="clipPath867">
      <rect
         style="opacity:1;fill:#ececec;fill-opacity:1;stroke:none;stroke-width:0;stroke-miterlimit:4;stroke-dasharray:none;stroke-opacity:1"
         id="rect869"
         width="1062.6636"
         height="1074.6373"
         x="-1570.0247"
         y="-509.99893"
         transform="rotate(-90)" />
    </clipPath>
    <clipPath
       clipPathUnits="userSpaceOnUse"
       id="clipPath871">
      <ellipse
         style="opacity:1;fill:#ffffff;fill-opacity:1;stroke:none;stroke-width:0;stroke-miterlimit:4;stroke-dasharray:none;stroke-opacity:1"
         id="ellipse873"
         cx="-1037.1962"
         cy="27.319729"
         rx="524.58215"
         ry="543.4574"
         transform="rotate(-90)" />
    </clipPath>
    <radialGradient
       gradientTransform="matrix(0.81956887,0,0,0.82047036,182.07268,57.151303)"
       fy="33.94024"
       fx="18.790847"
       r="10.150533"
       cy="33.94024"
       id="a"
       cx="18.790847"
       gradientUnits="userSpaceOnUse">
      <stop
         id="stop893"
         stop-color="#20C6B7"
         offset="0%" />
      <stop
         id="stop895"
         stop-color="#4D9ABF"
         offset="100%" />
    </radialGradient>
    <filter
       style="color-interpolation-filters:sRGB;"
       inkscape:label="Drop Shadow"
       id="filter1029">
      <feFlood
         flood-opacity="0.498039"
         flood-color="rgb(0,0,0)"
         result="flood"
         id="feFlood1019" />
      <feComposite
         in="flood"
         in2="SourceGraphic"
         operator="in"
         result="composite1"
         id="feComposite1021" />
      <feGaussianBlur
         in="composite1"
         stdDeviation="3"
         result="blur"
         id="feGaussianBlur1023" />
      <feOffset
         dx="6"
         dy="6"
         result="offset"
         id="feOffset1025" />
      <feComposite
         in="SourceGraphic"
         in2="offset"
         operator="over"
         result="composite2"
         id="feComposite1027" />
    </filter>
    <linearGradient
       gradientUnits="userSpaceOnUse"
       y2="20.1545"
       x2="9.89104"
       y1="39.1545"
       x1="42.8"
       id="paint0_linear">
      <stop
         id="stop931"
         stop-opacity=".65"
         stop-color="#158876" />
      <stop
         id="stop933"
         stop-color="#158876"
         offset=".75" />
    </linearGradient>
    <linearGradient
       gradientUnits="userSpaceOnUse"
       y2="79.4"
       x2="44"
       y1="41.4"
       x1="44"
       id="paint1_linear">
      <stop
         id="stop936"
         stop-opacity=".65"
         stop-color="#243746" />
      <stop
         id="stop938"
         stop-color="#243746"
         offset=".75" />
    </linearGradient>
    <linearGradient
       gradientUnits="userSpaceOnUse"
       y2="-9.2e-7"
       x2="44"
       y1="38"
       x1="44"
       id="paint2_linear">
      <stop
         id="stop941"
         stop-opacity=".65"
         stop-color="#41B38A" />
      <stop
         id="stop943"
         stop-color="#41B38A"
         offset=".75" />
    </linearGradient>
    <linearGradient
       gradientUnits="userSpaceOnUse"
       y2="59.6545"
       x2="9.89104"
       y1="40.6545"
       x1="42.8"
       id="paint3_linear">
      <stop
         id="stop946"
         stop-opacity=".65"
         stop-color="#2A506F" />
      <stop
         id="stop948"
         stop-color="#2A506F"
         offset=".75" />
    </linearGradient>
  </defs>
  <sodipodi:namedview
     id="base"
     pagecolor="#ffffff"
     bordercolor="#666666"
     borderopacity="1.0"
     inkscape:pageopacity="0.0"
     inkscape:pageshadow="2"
     inkscape:zoom="1"
     inkscape:cx="366.01288"
     inkscape:cy="118.3293"
     inkscape:document-units="mm"
     inkscape:current-layer="g976"
     showgrid="false"
     fit-margin-top="0"
     fit-margin-left="0"
     fit-margin-right="0"
     fit-margin-bottom="0"
     inkscape:window-width="1920"
     inkscape:window-height="986"
     inkscape:window-x="-11"
     inkscape:window-y="-11"
     inkscape:window-maximized="1"
     scale-x="1"
     showguides="true"
     inkscape:guide-bbox="true">
    <sodipodi:guide
       position="80.261038,116.74332"
       orientation="0,1"
       id="guide992"
       inkscape:locked="false" />
  </sodipodi:namedview>
  <metadata
     id="metadata5">
    <rdf:RDF>
      <cc:Work
         rdf:about="">
        <dc:format>image/svg+xml</dc:format>
        <dc:type
           rdf:resource="http://purl.org/dc/dcmitype/StillImage" />
        <dc:title></dc:title>
      </cc:Work>
    </rdf:RDF>
  </metadata>
  <g
     inkscape:label="Layer 1"
     inkscape:groupmode="layer"
     id="layer1"
     transform="translate(-13.493749,-33.739578)">
    <rect
       style="opacity:1;fill:#2a2a2a;fill-opacity:1;stroke:none;stroke-width:0;stroke-miterlimit:4;stroke-dasharray:none;stroke-opacity:1"
       id="rect823"
       width="148.56839"
       height="79.64093"
       x="12.401045"
       y="33.739578" />
    <path
       style="opacity:1;fill:#00695c;fill-opacity:1;stroke:none;stroke-width:0;stroke-miterlimit:4;stroke-dasharray:none;stroke-opacity:1"
       d="m 160.96943,33.739578 h 64.19099 v 79.640932 h -88.58357 z"
       id="rect829"
       inkscape:connector-curvature="0"
       sodipodi:nodetypes="ccccc" />
    <g
       id="g864"
       transform="matrix(0.10620279,0,0,0.10620411,118.70547,57.721048)"
       style="fill:none;fill-rule:nonzero">
      <path
         id="path858"
         d="m 227.92099,82.07407 -13.6889,23.7037 L 167.41729,24.69136 23.7037,273.58025 h 97.3037 c 0,13.0912 10.61252,23.7037 23.70371,23.7037 H 23.70371 c -8.46771,0 -16.29145,-4.52017 -20.5246,-11.85382 -4.23315,-7.33366 -4.23272,-16.36849 0.00114,-23.70174 L 146.89383,12.83951 c 4.23415,-7.33433 12.0596,-11.85252 20.5284,-11.85252 8.46878,0 16.29423,4.51819 20.52839,11.85252 z"
         inkscape:connector-curvature="0"
         style="fill:#00c58e" />
      <path
         id="path860"
         d="m 331.6642,261.7284 -90.05432,-155.95062 -13.6889,-23.7037 -13.68888,23.7037 -90.04445,155.95061 c -4.23385,7.33325 -4.23428,16.36808 -0.001,23.70174 4.23314,7.33365 12.05689,11.85382 20.5246,11.85382 h 166.4 c 8.46946,0 16.29644,-4.51525 20.532,-11.84955 4.23555,-7.3343 4.23606,-16.37123 10e-4,-23.706 z m -186.9531,11.85184 83.2099,-144.09876 83.19012,144.09877 h -166.4 z"
         inkscape:connector-curvature="0"
         style="fill:#2f495e" />
      <path
         id="path862"
         d="m 396.04938,285.4321 c -4.23344,7.33254 -12.05656,11.85185 -20.52345,11.85185 H 311.1111 c 13.0912,0 23.7037,-10.6125 23.7037,-23.7037 h 40.66173 L 260.09877,73.74815 241.60987,105.77778 227.92099,82.07408 239.5753,61.8963 c 4.23416,-7.33433 12.0596,-11.85252 20.5284,-11.85252 8.46879,0 16.29423,4.51819 20.52839,11.85252 l 115.41728,199.8321 c 4.23426,7.33395 4.23426,16.36975 0,23.7037 z"
         inkscape:connector-curvature="0"
         style="fill:#108775" />
    </g>
    <g
       style="fill:none"
       id="g976"
       transform="matrix(0.52099262,0,0,0.52099262,164.5916,45.755755)">
      <g
         id="g982"
         transform="translate(-16.25103,-7.6176703)">
        <path
           style="fill:url(#paint0_linear)"
           inkscape:connector-curvature="0"
           d="m 39.3359,33.1545 c 1.5396,2.6667 -0.3849,6 -3.4641,6 H 16.8192 c -3.0792,0 -5.0037,-3.3334 -3.4641,-6 l 9.5263,-16.5 c 1.5396,-2.6667 5.3886,-2.6667 6.9282,0 z"
           id="path921" />
        <path
           style="fill:url(#paint1_linear)"
           inkscape:connector-curvature="0"
           d="m 40.5359,47.4 c 1.5396,-2.6667 5.3886,-2.6667 6.9282,0 l 9.5263,16.5 c 1.5396,2.6667 -0.3849,6 -3.4641,6 H 34.4737 c -3.0792,0 -5.0037,-3.3333 -3.4641,-6 z"
           id="path923" />
        <path
           style="fill:url(#paint2_linear)"
           inkscape:connector-curvature="0"
           d="m 47.4641,32 c -1.5396,2.6667 -5.3886,2.6667 -6.9282,0 L 31.0096,15.5 c -1.5396,-2.6667 0.3849,-6 3.4641,-6 h 19.0526 c 3.0792,0 5.0037,3.3333 3.4641,6 z"
           id="path925" />
        <path
           style="fill:url(#paint3_linear)"
           inkscape:connector-curvature="0"
           d="m 35.8718,40.6545 c 3.0792,0 5.0037,3.3333 3.4641,6 l -9.5263,16.5 c -1.5396,2.6667 -5.3886,2.6666 -6.9282,0 l -9.5263,-16.5 c -1.5396,-2.6667 0.3849,-6 3.4641,-6 z"
           id="path927" />
      </g>
      <path
         id="path929"
         class="fill-current"
         d="m 94.186,26.368 c 0.768,0.416 1.152,1.056 1.152,1.92 0,0.576 -0.192,1.104 -0.576,1.584 -0.384,0.512 -0.912,0.768 -1.584,0.768 -0.448,0 -0.88,-0.112 -1.296,-0.336 -1.984,-1.12 -4.128,-1.68 -6.432,-1.68 -2.4,0 -4.528,0.528 -6.384,1.584 -1.824,1.056 -3.248,2.544 -4.272,4.464 -1.024,1.888 -1.536,4.064 -1.536,6.528 0,2.656 0.528,4.944 1.584,6.864 1.056,1.92 2.512,3.392 4.368,4.416 1.856,0.992 3.936,1.488 6.24,1.488 2.368,0 4.512,-0.576 6.432,-1.728 0.384,-0.192 0.8,-0.288 1.248,-0.288 0.704,0 1.264,0.272 1.68,0.816 0.384,0.48 0.576,0.992 0.576,1.536 0,0.384 -0.112,0.752 -0.336,1.104 -0.192,0.32 -0.464,0.576 -0.816,0.768 -1.248,0.704 -2.656,1.264 -4.224,1.68 -1.536,0.416 -3.056,0.624 -4.56,0.624 -3.104,0 -5.968,-0.688 -8.592,-2.064 -2.592,-1.376 -4.672,-3.376 -6.24,-6 -1.536,-2.624 -2.304,-5.696 -2.304,-9.216 0,-3.232 0.736,-6.144 2.208,-8.736 1.504,-2.624 3.552,-4.672 6.144,-6.144 2.624,-1.504 5.552,-2.256 8.784,-2.256 3.104,0 6.016,0.768 8.736,2.304 z m 29.889,19.056 c 0,2.496 -0.56,4.736 -1.68,6.72 -1.12,1.984 -2.656,3.536 -4.608,4.656 -1.92,1.12 -4.048,1.68 -6.384,1.68 -2.336,0 -4.48,-0.56 -6.432,-1.68 -1.92,-1.12 -3.44,-2.672 -4.56,-4.656 -1.1196,-1.984 -1.6796,-4.224 -1.6796,-6.72 0,-2.496 0.56,-4.752 1.6796,-6.768 1.12,-2.016 2.64,-3.584 4.56,-4.704 1.952,-1.12 4.096,-1.68 6.432,-1.68 2.336,0 4.464,0.56 6.384,1.68 1.952,1.12 3.488,2.688 4.608,4.704 1.12,2.016 1.68,4.272 1.68,6.768 z m -4.56,0 c 0,-1.728 -0.368,-3.264 -1.104,-4.608 -0.704,-1.376 -1.68,-2.432 -2.928,-3.168 -1.216,-0.768 -2.576,-1.152 -4.08,-1.152 -1.504,0 -2.88,0.384 -4.128,1.152 -1.216,0.736 -2.192,1.792 -2.928,3.168 -0.704,1.344 -1.056,2.88 -1.056,4.608 0,1.696 0.352,3.216 1.056,4.56 0.736,1.344 1.712,2.4 2.928,3.168 1.248,0.736 2.624,1.104 4.128,1.104 1.504,0 2.864,-0.368 4.08,-1.104 1.248,-0.768 2.224,-1.824 2.928,-3.168 0.736,-1.344 1.104,-2.864 1.104,-4.56 z m 22.678,-13.152 c 5.76,0 8.64,3.456 8.64,10.368 v 13.056 c 0,0.64 -0.224,1.184 -0.672,1.632 -0.416,0.448 -0.96,0.672 -1.632,0.672 -0.64,0 -1.184,-0.224 -1.632,-0.672 -0.416,-0.448 -0.624,-0.992 -0.624,-1.632 V 42.688 c 0,-1.888 -0.432,-3.392 -1.296,-4.512 -0.864,-1.12 -2.272,-1.68 -4.224,-1.68 -1.28,0 -2.448,0.288 -3.504,0.864 -1.024,0.544 -1.84,1.296 -2.448,2.256 -0.576,0.928 -0.864,1.952 -0.864,3.072 v 13.008 c 0,0.64 -0.224,1.184 -0.672,1.632 -0.416,0.448 -0.96,0.672 -1.632,0.672 -0.672,0 -1.216,-0.208 -1.632,-0.624 -0.416,-0.448 -0.624,-1.008 -0.624,-1.68 V 35.152 c 0,-0.64 0.208,-1.184 0.624,-1.632 0.448,-0.448 0.992,-0.672 1.632,-0.672 0.672,0 1.216,0.224 1.632,0.672 0.448,0.448 0.672,0.992 0.672,1.632 v 1.68 c 0.832,-1.28 1.984,-2.352 3.456,-3.216 1.504,-0.896 3.104,-1.344 4.8,-1.344 z m 22.265,5.04 v 14.304 c 0,1.6 0.72,2.4 2.16,2.4 0.224,0 0.528,-0.048 0.912,-0.144 0.384,-0.128 0.688,-0.192 0.912,-0.192 0.416,0 0.768,0.176 1.056,0.528 0.288,0.352 0.432,0.8 0.432,1.344 0,0.672 -0.384,1.248 -1.152,1.728 -0.768,0.48 -1.632,0.72 -2.592,0.72 -1.056,0 -2.032,-0.112 -2.928,-0.336 -0.864,-0.224 -1.648,-0.784 -2.352,-1.68 -0.672,-0.928 -1.008,-2.32 -1.008,-4.176 V 37.312 h -2.784 c -0.608,0 -1.12,-0.192 -1.536,-0.576 -0.384,-0.416 -0.576,-0.928 -0.576,-1.536 0,-0.608 0.192,-1.104 0.576,-1.488 0.416,-0.384 0.928,-0.576 1.536,-0.576 h 2.784 v -4.032 c 0,-0.64 0.208,-1.184 0.624,-1.632 0.448,-0.448 1.008,-0.672 1.68,-0.672 0.64,0 1.168,0.224 1.584,0.672 0.448,0.448 0.672,0.992 0.672,1.632 v 4.032 h 3.984 c 0.608,0 1.104,0.208 1.488,0.624 0.416,0.384 0.624,0.88 0.624,1.488 0,0.608 -0.208,1.104 -0.624,1.488 -0.384,0.384 -0.88,0.576 -1.488,0.576 z m 33.264,7.152 c -0.032,0.576 -0.272,1.072 -0.72,1.488 -0.448,0.384 -0.976,0.576 -1.584,0.576 h -16.896 c 0.224,2.336 1.104,4.208 2.64,5.616 1.568,1.408 3.472,2.112 5.712,2.112 1.536,0 2.784,-0.224 3.744,-0.672 0.96,-0.448 1.808,-1.024 2.544,-1.728 0.48,-0.288 0.944,-0.432 1.392,-0.432 0.544,0 0.992,0.192 1.344,0.576 0.384,0.384 0.576,0.832 0.576,1.344 0,0.672 -0.32,1.28 -0.96,1.824 -0.928,0.928 -2.16,1.712 -3.696,2.352 -1.536,0.64 -3.104,0.96 -4.704,0.96 -2.592,0 -4.88,-0.544 -6.864,-1.632 -1.952,-1.088 -3.472,-2.608 -4.56,-4.56 -1.056,-1.952 -1.584,-4.16 -1.584,-6.624 0,-2.688 0.544,-5.04 1.632,-7.056 1.12,-2.048 2.576,-3.616 4.368,-4.704 1.824,-1.088 3.776,-1.632 5.856,-1.632 2.048,0 3.968,0.528 5.76,1.584 1.792,1.056 3.232,2.512 4.32,4.368 1.088,1.856 1.648,3.936 1.68,6.24 z m -11.76,-7.968 c -1.792,0 -3.344,0.512 -4.656,1.536 -1.312,0.992 -2.176,2.544 -2.592,4.656 h 14.16 v -0.384 c -0.16,-1.696 -0.928,-3.088 -2.304,-4.176 -1.344,-1.088 -2.88,-1.632 -4.608,-1.632 z m 29.871,-4.224 c 5.76,0 8.64,3.456 8.64,10.368 v 13.056 c 0,0.64 -0.224,1.184 -0.672,1.632 -0.416,0.448 -0.96,0.672 -1.632,0.672 -0.64,0 -1.184,-0.224 -1.632,-0.672 -0.416,-0.448 -0.624,-0.992 -0.624,-1.632 V 42.688 c 0,-1.888 -0.432,-3.392 -1.296,-4.512 -0.864,-1.12 -2.272,-1.68 -4.224,-1.68 -1.28,0 -2.448,0.288 -3.504,0.864 -1.024,0.544 -1.84,1.296 -2.448,2.256 -0.576,0.928 -0.864,1.952 -0.864,3.072 v 13.008 c 0,0.64 -0.224,1.184 -0.672,1.632 -0.416,0.448 -0.96,0.672 -1.632,0.672 -0.672,0 -1.216,-0.208 -1.632,-0.624 -0.416,-0.448 -0.624,-1.008 -0.624,-1.68 V 35.152 c 0,-0.64 0.208,-1.184 0.624,-1.632 0.448,-0.448 0.992,-0.672 1.632,-0.672 0.672,0 1.216,0.224 1.632,0.672 0.448,0.448 0.672,0.992 0.672,1.632 v 1.68 c 0.832,-1.28 1.984,-2.352 3.456,-3.216 1.504,-0.896 3.104,-1.344 4.8,-1.344 z m 22.266,5.04 v 14.304 c 0,1.6 0.72,2.4 2.16,2.4 0.224,0 0.528,-0.048 0.912,-0.144 0.384,-0.128 0.688,-0.192 0.912,-0.192 0.416,0 0.768,0.176 1.056,0.528 0.288,0.352 0.432,0.8 0.432,1.344 0,0.672 -0.384,1.248 -1.152,1.728 -0.768,0.48 -1.632,0.72 -2.592,0.72 -1.056,0 -2.032,-0.112 -2.928,-0.336 -0.864,-0.224 -1.648,-0.784 -2.352,-1.68 -0.672,-0.928 -1.008,-2.32 -1.008,-4.176 V 37.312 h -2.784 c -0.608,0 -1.12,-0.192 -1.536,-0.576 -0.384,-0.416 -0.576,-0.928 -0.576,-1.536 0,-0.608 0.192,-1.104 0.576,-1.488 0.416,-0.384 0.928,-0.576 1.536,-0.576 h 2.784 v -4.032 c 0,-0.64 0.208,-1.184 0.624,-1.632 0.448,-0.448 1.008,-0.672 1.68,-0.672 0.64,0 1.168,0.224 1.584,0.672 0.448,0.448 0.672,0.992 0.672,1.632 v 4.032 h 3.984 c 0.608,0 1.104,0.208 1.488,0.624 0.416,0.384 0.624,0.88 0.624,1.488 0,0.608 -0.208,1.104 -0.624,1.488 -0.384,0.384 -0.88,0.576 -1.488,0.576 z"
         inkscape:connector-curvature="0" />
    </g>
  </g>
</svg>
